<?xml version="1.0" encoding="UTF-8" standalone="no"?>
<svg width="133px" height="135px" viewBox="0 0 133 135" version="1.1" xmlns="http://www.w3.org/2000/svg" xmlns:xlink="http://www.w3.org/1999/xlink" xmlns:sketch="http://www.bohemiancoding.com/sketch/ns">
    <!-- Generator: Sketch 3.3.3 (12072) - http://www.bohemiancoding.com/sketch -->
    <title>Untitled</title>
    <desc>Created with Sketch.</desc>
    <defs></defs>
    <g id="Page-1" stroke="none" stroke-width="1" fill="none" fill-rule="evenodd" sketch:type="MSPage">
        <g id="logo" sketch:type="MSLayerGroup" fill="#FFFFFF">
            <g id="Logo" sketch:type="MSShapeGroup">
                <path d="M66.5,0 C29.8,0 0,30.2 0,66.9 C0,102 26.9,131 61.2,133.8 C62.8,133.8 64.9,134.2 66.5,134.2 L133,134.2 L133,67.3 L133,66.9 C133,30.2 103.2,0 66.5,0 L66.5,0 Z M110.6,60.8 C109.8,63.7 108.2,65.7 105.7,66.9 C104.1,67.7 102.4,68.1 100.4,68.1 C99.2,68.1 98,67.7 96.7,67.3 L94.3,67.3 C91.4,67.3 87.8,68.1 82.9,70.2 L82.9,70.2 C82.5,70.6 81.3,71.4 80.9,72.2 L80.9,72.2 L77.2,85.3 C77.2,85.3 76.8,86.9 77.6,88.2 C81.7,93.9 84.9,97.2 87.8,98 C90.7,98.4 93.1,100 94.7,102.5 C95.9,104.5 96.3,107.4 95.5,109.8 C94.7,112.2 93.5,114.3 91,115.5 C89.8,116.3 88.1,116.7 86.5,116.7 C83.2,116.7 80,115.1 78.3,111.8 C76.7,109.4 76.7,106.1 77.9,103.6 C78.7,101.2 77.9,96.3 75,89.7 C75,89.7 74.6,88.5 73.4,88.1 L59.5,84.4 L59.1,84.4 C58.3,84.4 57.5,84.8 57.5,84.8 C52.2,88.5 48.9,91.3 48.5,93.8 C48.1,96.2 46.9,98.3 44.8,99.5 C43.6,100.3 42.4,100.7 40.7,100.7 C37.8,100.7 35.4,99.1 33.8,96.6 C31.8,92.9 33,88 36.7,86 C37.9,85.2 39.1,84.8 40.8,84.8 C41.6,84.8 42.8,84.8 43.7,85.2 C44.1,85.2 44.9,85.6 45.3,85.6 C47.7,85.6 51.4,84.4 55.5,82.3 C56.7,81.5 57.1,80.3 57.5,79.9 L61.2,66.4 C61.6,65.6 60.8,64.4 60.4,63.5 C54.7,55.7 50.2,51.3 46.5,50.4 C42.8,50 40,48 37.9,44.7 C36.3,41.8 35.9,38.6 36.7,35.7 C37.5,32.8 39.6,30 42,28.4 C43.6,27.2 45.7,26.8 47.7,26.8 C51.8,26.8 55.9,29.2 57.9,32.9 C59.5,36.2 59.9,39.8 58.7,43.1 C57.5,46.4 58.7,52.9 62.8,61.5 C62.8,61.5 63.6,63.5 65.7,63.9 L78.3,67.2 L79.1,67.2 C80.3,67.2 81.5,66.4 81.5,66.4 L81.5,66.4 C86.8,62.3 90.1,58.6 90.5,55.8 C90.9,52.5 92.9,49.7 95.4,48.5 C97,47.7 98.7,47.3 100.7,47.3 C104.4,47.3 107.6,49.3 109.7,52.6 C111,55.1 111.4,57.9 110.6,60.8 L110.6,60.8 Z" id="Shape"></path>
            </g>
        </g>
    </g>
</svg>